<mxfile host="Electron" agent="Mozilla/5.0 (Windows NT 10.0; Win64; x64) AppleWebKit/537.36 (KHTML, like Gecko) draw.io/26.0.16 Chrome/132.0.6834.196 Electron/34.2.0 Safari/537.36" version="26.0.16">
  <diagram name="Page-1" id="_MKTxIS3bkG_bCggun3c">
    <mxGraphModel dx="2954" dy="1204" grid="1" gridSize="10" guides="1" tooltips="1" connect="1" arrows="1" fold="1" page="1" pageScale="1" pageWidth="1654" pageHeight="1169" math="0" shadow="0">
      <root>
        <mxCell id="0" />
        <mxCell id="1" parent="0" />
        <mxCell id="gNSWMHWRMmLLU9wpzko7-1" style="edgeStyle=orthogonalEdgeStyle;rounded=1;orthogonalLoop=1;jettySize=auto;html=1;curved=0;endArrow=block;endFill=0;" edge="1" parent="1" source="gNSWMHWRMmLLU9wpzko7-4" target="gNSWMHWRMmLLU9wpzko7-9">
          <mxGeometry relative="1" as="geometry" />
        </mxCell>
        <mxCell id="gNSWMHWRMmLLU9wpzko7-2" style="edgeStyle=orthogonalEdgeStyle;rounded=1;orthogonalLoop=1;jettySize=auto;html=1;curved=0;endArrow=open;endFill=0;startArrow=none;startFill=0;" edge="1" parent="1" source="gNSWMHWRMmLLU9wpzko7-4" target="gNSWMHWRMmLLU9wpzko7-13">
          <mxGeometry relative="1" as="geometry">
            <Array as="points">
              <mxPoint x="440" y="320" />
            </Array>
          </mxGeometry>
        </mxCell>
        <mxCell id="gNSWMHWRMmLLU9wpzko7-3" style="edgeStyle=orthogonalEdgeStyle;rounded=0;orthogonalLoop=1;jettySize=auto;html=1;endArrow=open;endFill=0;startArrow=diamondThin;startFill=1;" edge="1" parent="1" source="gNSWMHWRMmLLU9wpzko7-4" target="gNSWMHWRMmLLU9wpzko7-17">
          <mxGeometry relative="1" as="geometry" />
        </mxCell>
        <mxCell id="gNSWMHWRMmLLU9wpzko7-4" value="&lt;p style=&quot;margin:0px;margin-top:4px;text-align:center;&quot;&gt;&lt;b&gt;TreeWidgetItem&lt;/b&gt;&lt;/p&gt;&lt;hr size=&quot;1&quot;&gt;&lt;p style=&quot;margin:0px;margin-left:4px;&quot;&gt;- flags:&amp;nbsp;NavigationTreeItemFlags&lt;/p&gt;&lt;hr size=&quot;1&quot;&gt;&lt;p style=&quot;margin:0px;margin-left:4px;&quot;&gt;+ getFullInfo(void): TreeWidgetItemInfo&lt;/p&gt;&lt;p style=&quot;margin:0px;margin-left:4px;&quot;&gt;+ getTreeWidgetItemPath(delimiter: char, nameCol: int): String&lt;/p&gt;&lt;p style=&quot;margin:0px;margin-left:4px;&quot;&gt;+ expandAllParents(expandThis: bool): void&lt;/p&gt;" style="verticalAlign=top;align=left;overflow=fill;fontSize=12;fontFamily=Helvetica;html=1;fillColor=#ffe6cc;strokeColor=#000000;" vertex="1" parent="1">
          <mxGeometry x="560" y="200" width="360" height="130" as="geometry" />
        </mxCell>
        <mxCell id="gNSWMHWRMmLLU9wpzko7-5" style="edgeStyle=orthogonalEdgeStyle;rounded=0;orthogonalLoop=1;jettySize=auto;html=1;endArrow=open;endFill=0;" edge="1" parent="1" source="gNSWMHWRMmLLU9wpzko7-8" target="gNSWMHWRMmLLU9wpzko7-9">
          <mxGeometry relative="1" as="geometry">
            <Array as="points">
              <mxPoint x="520" y="80" />
              <mxPoint x="520" y="80" />
            </Array>
          </mxGeometry>
        </mxCell>
        <mxCell id="gNSWMHWRMmLLU9wpzko7-6" style="edgeStyle=orthogonalEdgeStyle;rounded=1;orthogonalLoop=1;jettySize=auto;html=1;curved=0;endArrow=open;endFill=0;" edge="1" parent="1" source="gNSWMHWRMmLLU9wpzko7-8" target="gNSWMHWRMmLLU9wpzko7-4">
          <mxGeometry relative="1" as="geometry">
            <Array as="points">
              <mxPoint x="520" y="240" />
              <mxPoint x="520" y="240" />
            </Array>
          </mxGeometry>
        </mxCell>
        <mxCell id="gNSWMHWRMmLLU9wpzko7-7" style="edgeStyle=orthogonalEdgeStyle;rounded=1;orthogonalLoop=1;jettySize=auto;html=1;curved=0;endArrow=open;endFill=0;" edge="1" parent="1" source="gNSWMHWRMmLLU9wpzko7-8" target="gNSWMHWRMmLLU9wpzko7-13">
          <mxGeometry relative="1" as="geometry">
            <Array as="points">
              <mxPoint x="360" y="320" />
              <mxPoint x="360" y="320" />
            </Array>
          </mxGeometry>
        </mxCell>
        <mxCell id="gNSWMHWRMmLLU9wpzko7-8" value="&lt;p style=&quot;margin:0px;margin-top:4px;text-align:center;&quot;&gt;&lt;b&gt;TreeWidget&lt;/b&gt;&lt;/p&gt;&lt;hr size=&quot;1&quot;&gt;&lt;p style=&quot;margin:0px;margin-left:4px;&quot;&gt;- columnWidths: int[*]&lt;/p&gt;&lt;hr size=&quot;1&quot;&gt;&lt;p style=&quot;margin:0px;margin-left:4px;&quot;&gt;- addItem(parent: QTreeWidgetItem, info: TreeWidgetItemInfo&lt;/p&gt;&lt;p style=&quot;margin:0px;margin-left:4px;&quot;&gt;+&amp;nbsp;findItem(path: QString, delimiter: char): QTreeWidgetItem&lt;/p&gt;&lt;p style=&quot;margin:0px;margin-left:4px;&quot;&gt;+ itemExists(path: QString, delimiter: char): bool&lt;/p&gt;&lt;p style=&quot;margin:0px;margin-left:4px;&quot;&gt;+ itemTextExists(text: QString): bool&lt;/p&gt;&lt;p style=&quot;margin:0px;margin-left:4px;&quot;&gt;+ getItemPath(item: QTreeWidgetItem, delimiter: char): QString&lt;/p&gt;&lt;p style=&quot;margin:0px;margin-left:4px;&quot;&gt;+ addItem(info: TreeWidgetItemInfo): QTreeWidgetItem&lt;/p&gt;&lt;p style=&quot;margin:0px;margin-left:4px;&quot;&gt;+ deselectAll(void): void&lt;/p&gt;&lt;p style=&quot;margin:0px;margin-left:4px;&quot;&gt;+ itemTextExists(parent: QTreeWidgetItem, text: QString) bool&lt;/p&gt;&lt;p style=&quot;margin:0px;margin-left:4px;&quot;&gt;+ findItem(parent: QTreeWidgetItem, itemPath: QStringList): QTreeWidgetItem)&lt;/p&gt;&lt;p style=&quot;margin:0px;margin-left:4px;&quot;&gt;+ findItemByText(parent: QTreeWidgetItem, text: QString): QTreeWidgetItem&lt;/p&gt;" style="verticalAlign=top;align=left;overflow=fill;fontSize=12;fontFamily=Helvetica;html=1;fillColor=#ffe6cc;strokeColor=#000000;" vertex="1" parent="1">
          <mxGeometry x="40" y="40" width="440" height="240" as="geometry" />
        </mxCell>
        <mxCell id="gNSWMHWRMmLLU9wpzko7-9" value="&lt;p style=&quot;margin:0px;margin-top:4px;text-align:center;&quot;&gt;&lt;b&gt;QTreeWidgetItem&lt;/b&gt;&lt;/p&gt;&lt;hr size=&quot;1&quot;&gt;&lt;p style=&quot;margin:0px;margin-left:4px;&quot;&gt;&lt;br&gt;&lt;/p&gt;&lt;hr size=&quot;1&quot;&gt;&lt;p style=&quot;margin:0px;margin-left:4px;&quot;&gt;&amp;nbsp;&lt;/p&gt;" style="verticalAlign=top;align=left;overflow=fill;fontSize=12;fontFamily=Helvetica;html=1;fillColor=#ffe6cc;strokeColor=#000000;" vertex="1" parent="1">
          <mxGeometry x="560" y="40" width="360" height="80" as="geometry" />
        </mxCell>
        <mxCell id="gNSWMHWRMmLLU9wpzko7-10" value="manages" style="text;html=1;align=center;verticalAlign=middle;whiteSpace=wrap;rounded=0;fontStyle=2;fontSize=11;connectable=0;allowArrows=0;" vertex="1" parent="1">
          <mxGeometry x="500" y="40" width="40" height="40" as="geometry" />
        </mxCell>
        <mxCell id="gNSWMHWRMmLLU9wpzko7-11" value="creates" style="text;html=1;align=center;verticalAlign=middle;whiteSpace=wrap;rounded=0;fontStyle=2;fontSize=11;connectable=0;allowArrows=0;" vertex="1" parent="1">
          <mxGeometry x="500" y="200" width="40" height="40" as="geometry" />
        </mxCell>
        <mxCell id="gNSWMHWRMmLLU9wpzko7-12" style="edgeStyle=orthogonalEdgeStyle;rounded=0;orthogonalLoop=1;jettySize=auto;html=1;endArrow=open;endFill=0;" edge="1" parent="1" source="gNSWMHWRMmLLU9wpzko7-13" target="gNSWMHWRMmLLU9wpzko7-17">
          <mxGeometry relative="1" as="geometry">
            <Array as="points">
              <mxPoint x="620" y="440" />
              <mxPoint x="620" y="440" />
            </Array>
          </mxGeometry>
        </mxCell>
        <mxCell id="gNSWMHWRMmLLU9wpzko7-13" value="&lt;p style=&quot;margin:0px;margin-top:4px;text-align:center;&quot;&gt;&lt;b&gt;TreeWidgetItemInfo&lt;/b&gt;&lt;/p&gt;&lt;hr size=&quot;1&quot;&gt;&lt;p style=&quot;margin:0px;margin-left:4px;&quot;&gt;&lt;br&gt;&lt;/p&gt;&lt;hr size=&quot;1&quot;&gt;&lt;p style=&quot;margin:0px;margin-left:4px;&quot;&gt;&amp;nbsp;&lt;/p&gt;" style="verticalAlign=top;align=left;overflow=fill;fontSize=12;fontFamily=Helvetica;html=1;fillColor=#ffe6cc;strokeColor=#000000;" vertex="1" parent="1">
          <mxGeometry x="320" y="400" width="160" height="80" as="geometry" />
        </mxCell>
        <mxCell id="gNSWMHWRMmLLU9wpzko7-14" value="uses" style="text;html=1;align=center;verticalAlign=middle;whiteSpace=wrap;rounded=0;fontStyle=2;fontSize=11;connectable=0;allowArrows=0;" vertex="1" parent="1">
          <mxGeometry x="360" y="300" width="40" height="40" as="geometry" />
        </mxCell>
        <mxCell id="gNSWMHWRMmLLU9wpzko7-15" value="is" style="text;html=1;align=center;verticalAlign=middle;whiteSpace=wrap;rounded=0;fontStyle=2;fontSize=11;connectable=0;allowArrows=0;" vertex="1" parent="1">
          <mxGeometry x="740" y="140" width="40" height="40" as="geometry" />
        </mxCell>
        <mxCell id="gNSWMHWRMmLLU9wpzko7-16" value="creates" style="text;html=1;align=center;verticalAlign=middle;whiteSpace=wrap;rounded=0;fontStyle=2;fontSize=11;connectable=0;allowArrows=0;" vertex="1" parent="1">
          <mxGeometry x="500" y="280" width="40" height="40" as="geometry" />
        </mxCell>
        <mxCell id="gNSWMHWRMmLLU9wpzko7-17" value="&lt;p style=&quot;margin:0px;margin-top:4px;text-align:center;&quot;&gt;&lt;span style=&quot;background-color: initial;&quot;&gt;&lt;font style=&quot;font-size: 11px;&quot;&gt;&amp;lt;&amp;lt;enumeration&amp;gt;&amp;gt;&lt;/font&gt;&lt;/span&gt;&lt;/p&gt;&lt;p style=&quot;margin:0px;margin-top:4px;text-align:center;&quot;&gt;&lt;b&gt;NavigationTreeItemFlag&lt;/b&gt;&lt;/p&gt;&lt;hr size=&quot;1&quot;&gt;&lt;p style=&quot;margin:0px;margin-left:4px;&quot;&gt;NoFlags&lt;/p&gt;&lt;p style=&quot;margin:0px;margin-left:4px;&quot;&gt;RemoveItemWhenEmpty&lt;/p&gt;&lt;p style=&quot;margin:0px;margin-left:4px;&quot;&gt;ItemMayBeAdded&lt;/p&gt;&lt;p style=&quot;margin:0px;margin-left:4px;&quot;&gt;ItemIsSelected&lt;/p&gt;&lt;p style=&quot;margin:0px;margin-left:4px;&quot;&gt;ItemIsInvisible&lt;/p&gt;" style="verticalAlign=top;align=left;overflow=fill;fontSize=12;fontFamily=Helvetica;html=1;fillColor=#ffe6cc;strokeColor=#000000;rounded=0;fontColor=default;" vertex="1" parent="1">
          <mxGeometry x="660" y="400" width="160" height="140" as="geometry" />
        </mxCell>
        <mxCell id="gNSWMHWRMmLLU9wpzko7-18" value="uses" style="text;html=1;align=center;verticalAlign=middle;whiteSpace=wrap;rounded=0;fontStyle=2;fontSize=11;connectable=0;allowArrows=0;" vertex="1" parent="1">
          <mxGeometry x="550" y="400" width="40" height="40" as="geometry" />
        </mxCell>
        <mxCell id="gNSWMHWRMmLLU9wpzko7-19" value="has" style="text;html=1;align=center;verticalAlign=middle;whiteSpace=wrap;rounded=0;fontStyle=2;fontSize=11;connectable=0;allowArrows=0;" vertex="1" parent="1">
          <mxGeometry x="700" y="344.5" width="40" height="40" as="geometry" />
        </mxCell>
        <mxCell id="gNSWMHWRMmLLU9wpzko7-20" value="1" style="text;html=1;align=center;verticalAlign=middle;whiteSpace=wrap;rounded=0;connectable=0;allowArrows=0;" vertex="1" parent="1">
          <mxGeometry x="740" y="330" width="40" height="40" as="geometry" />
        </mxCell>
      </root>
    </mxGraphModel>
  </diagram>
</mxfile>
